<mxfile host="app.diagrams.net" modified="2024-01-22T19:32:36.029Z" agent="Mozilla/5.0 (Windows NT 10.0; Win64; x64) AppleWebKit/537.36 (KHTML, like Gecko) Chrome/120.0.0.0 Safari/537.36" etag="VfPMkYhWAXiEkmjXoPEQ" version="22.1.21" type="device">
  <diagram name="Page-1" id="YIDqacu60PTyo9X0Uc2I">
    <mxGraphModel dx="1167" dy="619" grid="1" gridSize="10" guides="1" tooltips="1" connect="1" arrows="1" fold="1" page="1" pageScale="1" pageWidth="1169" pageHeight="827" math="0" shadow="0">
      <root>
        <mxCell id="0" />
        <mxCell id="1" parent="0" />
        <mxCell id="Y2DvVZU8C8rbFuwOFh0H-20" value="" style="group" vertex="1" connectable="0" parent="1">
          <mxGeometry x="660" y="280" width="440" height="236" as="geometry" />
        </mxCell>
        <mxCell id="Y2DvVZU8C8rbFuwOFh0H-6" value="Symbol" style="swimlane;fontStyle=1;align=center;verticalAlign=top;childLayout=stackLayout;horizontal=1;startSize=26;horizontalStack=0;resizeParent=1;resizeParentMax=0;resizeLast=0;collapsible=1;marginBottom=0;whiteSpace=wrap;html=1;" vertex="1" parent="Y2DvVZU8C8rbFuwOFh0H-20">
          <mxGeometry x="140" width="160" height="86" as="geometry" />
        </mxCell>
        <mxCell id="Y2DvVZU8C8rbFuwOFh0H-7" value="+ symbolType&amp;nbsp;" style="text;strokeColor=none;fillColor=none;align=left;verticalAlign=top;spacingLeft=4;spacingRight=4;overflow=hidden;rotatable=0;points=[[0,0.5],[1,0.5]];portConstraint=eastwest;whiteSpace=wrap;html=1;" vertex="1" parent="Y2DvVZU8C8rbFuwOFh0H-6">
          <mxGeometry y="26" width="160" height="26" as="geometry" />
        </mxCell>
        <mxCell id="Y2DvVZU8C8rbFuwOFh0H-8" value="" style="line;strokeWidth=1;fillColor=none;align=left;verticalAlign=middle;spacingTop=-1;spacingLeft=3;spacingRight=3;rotatable=0;labelPosition=right;points=[];portConstraint=eastwest;strokeColor=inherit;" vertex="1" parent="Y2DvVZU8C8rbFuwOFh0H-6">
          <mxGeometry y="52" width="160" height="8" as="geometry" />
        </mxCell>
        <mxCell id="Y2DvVZU8C8rbFuwOFh0H-9" value="+ Symbol(symbolType)" style="text;strokeColor=none;fillColor=none;align=left;verticalAlign=top;spacingLeft=4;spacingRight=4;overflow=hidden;rotatable=0;points=[[0,0.5],[1,0.5]];portConstraint=eastwest;whiteSpace=wrap;html=1;" vertex="1" parent="Y2DvVZU8C8rbFuwOFh0H-6">
          <mxGeometry y="60" width="160" height="26" as="geometry" />
        </mxCell>
        <mxCell id="Y2DvVZU8C8rbFuwOFh0H-18" value="Extends" style="endArrow=block;endSize=16;endFill=0;html=1;rounded=0;exitX=0.5;exitY=0;exitDx=0;exitDy=0;" edge="1" parent="Y2DvVZU8C8rbFuwOFh0H-20" source="Y2DvVZU8C8rbFuwOFh0H-10">
          <mxGeometry width="160" relative="1" as="geometry">
            <mxPoint x="140" y="50" as="sourcePoint" />
            <mxPoint x="220" y="90" as="targetPoint" />
            <Array as="points">
              <mxPoint x="85" y="140" />
              <mxPoint x="220" y="140" />
            </Array>
          </mxGeometry>
        </mxCell>
        <mxCell id="Y2DvVZU8C8rbFuwOFh0H-19" value="Extends" style="endArrow=block;endSize=16;endFill=0;html=1;rounded=0;exitX=0.5;exitY=0;exitDx=0;exitDy=0;" edge="1" parent="Y2DvVZU8C8rbFuwOFh0H-20" source="Y2DvVZU8C8rbFuwOFh0H-14">
          <mxGeometry width="160" relative="1" as="geometry">
            <mxPoint x="287.5" y="146" as="sourcePoint" />
            <mxPoint x="220" y="90" as="targetPoint" />
            <Array as="points">
              <mxPoint x="365" y="140" />
              <mxPoint x="220" y="140" />
            </Array>
          </mxGeometry>
        </mxCell>
        <mxCell id="Y2DvVZU8C8rbFuwOFh0H-21" value="Board" style="swimlane;fontStyle=1;align=center;verticalAlign=top;childLayout=stackLayout;horizontal=1;startSize=26;horizontalStack=0;resizeParent=1;resizeParentMax=0;resizeLast=0;collapsible=1;marginBottom=0;whiteSpace=wrap;html=1;" vertex="1" parent="1">
          <mxGeometry x="530" y="70" width="160" height="112" as="geometry" />
        </mxCell>
        <mxCell id="Y2DvVZU8C8rbFuwOFh0H-22" value="+ size : int" style="text;strokeColor=none;fillColor=none;align=left;verticalAlign=top;spacingLeft=4;spacingRight=4;overflow=hidden;rotatable=0;points=[[0,0.5],[1,0.5]];portConstraint=eastwest;whiteSpace=wrap;html=1;" vertex="1" parent="Y2DvVZU8C8rbFuwOFh0H-21">
          <mxGeometry y="26" width="160" height="26" as="geometry" />
        </mxCell>
        <mxCell id="Y2DvVZU8C8rbFuwOFh0H-24" value="+ symbol: Symbol[][]" style="text;strokeColor=none;fillColor=none;align=left;verticalAlign=top;spacingLeft=4;spacingRight=4;overflow=hidden;rotatable=0;points=[[0,0.5],[1,0.5]];portConstraint=eastwest;whiteSpace=wrap;html=1;" vertex="1" parent="Y2DvVZU8C8rbFuwOFh0H-21">
          <mxGeometry y="52" width="160" height="26" as="geometry" />
        </mxCell>
        <mxCell id="Y2DvVZU8C8rbFuwOFh0H-23" value="" style="line;strokeWidth=1;fillColor=none;align=left;verticalAlign=middle;spacingTop=-1;spacingLeft=3;spacingRight=3;rotatable=0;labelPosition=right;points=[];portConstraint=eastwest;strokeColor=inherit;" vertex="1" parent="Y2DvVZU8C8rbFuwOFh0H-21">
          <mxGeometry y="78" width="160" height="8" as="geometry" />
        </mxCell>
        <mxCell id="Y2DvVZU8C8rbFuwOFh0H-27" value="+ Boar()" style="text;strokeColor=none;fillColor=none;align=left;verticalAlign=top;spacingLeft=4;spacingRight=4;overflow=hidden;rotatable=0;points=[[0,0.5],[1,0.5]];portConstraint=eastwest;whiteSpace=wrap;html=1;" vertex="1" parent="Y2DvVZU8C8rbFuwOFh0H-21">
          <mxGeometry y="86" width="160" height="26" as="geometry" />
        </mxCell>
        <mxCell id="Y2DvVZU8C8rbFuwOFh0H-26" value="Use" style="endArrow=open;endSize=12;dashed=1;html=1;rounded=0;exitX=1;exitY=0.5;exitDx=0;exitDy=0;entryX=0.5;entryY=0;entryDx=0;entryDy=0;" edge="1" parent="1" source="Y2DvVZU8C8rbFuwOFh0H-22" target="Y2DvVZU8C8rbFuwOFh0H-6">
          <mxGeometry width="160" relative="1" as="geometry">
            <mxPoint x="500" y="300" as="sourcePoint" />
            <mxPoint x="660" y="300" as="targetPoint" />
            <Array as="points">
              <mxPoint x="880" y="109" />
            </Array>
          </mxGeometry>
        </mxCell>
        <mxCell id="Y2DvVZU8C8rbFuwOFh0H-38" value="Player" style="swimlane;fontStyle=1;align=center;verticalAlign=top;childLayout=stackLayout;horizontal=1;startSize=26;horizontalStack=0;resizeParent=1;resizeParentMax=0;resizeLast=0;collapsible=1;marginBottom=0;whiteSpace=wrap;html=1;" vertex="1" parent="1">
          <mxGeometry x="280" y="80" width="160" height="112" as="geometry" />
        </mxCell>
        <mxCell id="Y2DvVZU8C8rbFuwOFh0H-39" value="+ name: string" style="text;strokeColor=none;fillColor=none;align=left;verticalAlign=top;spacingLeft=4;spacingRight=4;overflow=hidden;rotatable=0;points=[[0,0.5],[1,0.5]];portConstraint=eastwest;whiteSpace=wrap;html=1;" vertex="1" parent="Y2DvVZU8C8rbFuwOFh0H-38">
          <mxGeometry y="26" width="160" height="26" as="geometry" />
        </mxCell>
        <mxCell id="Y2DvVZU8C8rbFuwOFh0H-40" value="+ playingPiece : Symbol&amp;nbsp;" style="text;strokeColor=none;fillColor=none;align=left;verticalAlign=top;spacingLeft=4;spacingRight=4;overflow=hidden;rotatable=0;points=[[0,0.5],[1,0.5]];portConstraint=eastwest;whiteSpace=wrap;html=1;" vertex="1" parent="Y2DvVZU8C8rbFuwOFh0H-38">
          <mxGeometry y="52" width="160" height="26" as="geometry" />
        </mxCell>
        <mxCell id="Y2DvVZU8C8rbFuwOFh0H-41" value="" style="line;strokeWidth=1;fillColor=none;align=left;verticalAlign=middle;spacingTop=-1;spacingLeft=3;spacingRight=3;rotatable=0;labelPosition=right;points=[];portConstraint=eastwest;strokeColor=inherit;" vertex="1" parent="Y2DvVZU8C8rbFuwOFh0H-38">
          <mxGeometry y="78" width="160" height="8" as="geometry" />
        </mxCell>
        <mxCell id="Y2DvVZU8C8rbFuwOFh0H-42" value="+ Boar()" style="text;strokeColor=none;fillColor=none;align=left;verticalAlign=top;spacingLeft=4;spacingRight=4;overflow=hidden;rotatable=0;points=[[0,0.5],[1,0.5]];portConstraint=eastwest;whiteSpace=wrap;html=1;" vertex="1" parent="Y2DvVZU8C8rbFuwOFh0H-38">
          <mxGeometry y="86" width="160" height="26" as="geometry" />
        </mxCell>
        <mxCell id="Y2DvVZU8C8rbFuwOFh0H-43" value="Use" style="endArrow=open;endSize=12;dashed=1;html=1;rounded=0;exitX=0.463;exitY=1.162;exitDx=0;exitDy=0;exitPerimeter=0;" edge="1" parent="1" source="Y2DvVZU8C8rbFuwOFh0H-42">
          <mxGeometry width="160" relative="1" as="geometry">
            <mxPoint x="440" y="150" as="sourcePoint" />
            <mxPoint x="800" y="320" as="targetPoint" />
            <Array as="points">
              <mxPoint x="354" y="320" />
            </Array>
          </mxGeometry>
        </mxCell>
        <mxCell id="Y2DvVZU8C8rbFuwOFh0H-44" value="Game" style="swimlane;fontStyle=1;align=center;verticalAlign=top;childLayout=stackLayout;horizontal=1;startSize=26;horizontalStack=0;resizeParent=1;resizeParentMax=0;resizeLast=0;collapsible=1;marginBottom=0;whiteSpace=wrap;html=1;" vertex="1" parent="1">
          <mxGeometry x="170" y="370" width="160" height="86" as="geometry" />
        </mxCell>
        <mxCell id="Y2DvVZU8C8rbFuwOFh0H-49" value="Use" style="endArrow=open;endSize=12;dashed=1;html=1;rounded=0;entryX=0;entryY=0.5;entryDx=0;entryDy=0;" edge="1" parent="Y2DvVZU8C8rbFuwOFh0H-44" target="Y2DvVZU8C8rbFuwOFh0H-40">
          <mxGeometry width="160" relative="1" as="geometry">
            <mxPoint x="80" as="sourcePoint" />
            <mxPoint x="240" as="targetPoint" />
            <Array as="points">
              <mxPoint x="80" y="-225" />
            </Array>
          </mxGeometry>
        </mxCell>
        <mxCell id="Y2DvVZU8C8rbFuwOFh0H-45" value="+ player: List&amp;lt;Player&amp;gt;" style="text;strokeColor=none;fillColor=none;align=left;verticalAlign=top;spacingLeft=4;spacingRight=4;overflow=hidden;rotatable=0;points=[[0,0.5],[1,0.5]];portConstraint=eastwest;whiteSpace=wrap;html=1;" vertex="1" parent="Y2DvVZU8C8rbFuwOFh0H-44">
          <mxGeometry y="26" width="160" height="26" as="geometry" />
        </mxCell>
        <mxCell id="Y2DvVZU8C8rbFuwOFh0H-46" value="+ board : Board;&amp;nbsp;" style="text;strokeColor=none;fillColor=none;align=left;verticalAlign=top;spacingLeft=4;spacingRight=4;overflow=hidden;rotatable=0;points=[[0,0.5],[1,0.5]];portConstraint=eastwest;whiteSpace=wrap;html=1;" vertex="1" parent="Y2DvVZU8C8rbFuwOFh0H-44">
          <mxGeometry y="52" width="160" height="26" as="geometry" />
        </mxCell>
        <mxCell id="Y2DvVZU8C8rbFuwOFh0H-47" value="" style="line;strokeWidth=1;fillColor=none;align=left;verticalAlign=middle;spacingTop=-1;spacingLeft=3;spacingRight=3;rotatable=0;labelPosition=right;points=[];portConstraint=eastwest;strokeColor=inherit;" vertex="1" parent="Y2DvVZU8C8rbFuwOFh0H-44">
          <mxGeometry y="78" width="160" height="8" as="geometry" />
        </mxCell>
        <mxCell id="Y2DvVZU8C8rbFuwOFh0H-50" value="Use" style="endArrow=open;endSize=12;dashed=1;html=1;rounded=0;exitX=1;exitY=-0.162;exitDx=0;exitDy=0;exitPerimeter=0;entryX=0.51;entryY=1.269;entryDx=0;entryDy=0;entryPerimeter=0;" edge="1" parent="1" source="Y2DvVZU8C8rbFuwOFh0H-46" target="Y2DvVZU8C8rbFuwOFh0H-27">
          <mxGeometry width="160" relative="1" as="geometry">
            <mxPoint x="330" y="409" as="sourcePoint" />
            <mxPoint x="320" y="39" as="targetPoint" />
            <Array as="points">
              <mxPoint x="612" y="418" />
            </Array>
          </mxGeometry>
        </mxCell>
        <mxCell id="Y2DvVZU8C8rbFuwOFh0H-10" value="CrossSymbol" style="swimlane;fontStyle=1;align=center;verticalAlign=top;childLayout=stackLayout;horizontal=1;startSize=26;horizontalStack=0;resizeParent=1;resizeParentMax=0;resizeLast=0;collapsible=1;marginBottom=0;whiteSpace=wrap;html=1;" vertex="1" parent="1">
          <mxGeometry x="660" y="516" width="170" height="86" as="geometry" />
        </mxCell>
        <mxCell id="Y2DvVZU8C8rbFuwOFh0H-11" value="+ symbolType&amp;nbsp;" style="text;strokeColor=none;fillColor=none;align=left;verticalAlign=top;spacingLeft=4;spacingRight=4;overflow=hidden;rotatable=0;points=[[0,0.5],[1,0.5]];portConstraint=eastwest;whiteSpace=wrap;html=1;" vertex="1" parent="Y2DvVZU8C8rbFuwOFh0H-10">
          <mxGeometry y="26" width="170" height="26" as="geometry" />
        </mxCell>
        <mxCell id="Y2DvVZU8C8rbFuwOFh0H-12" value="" style="line;strokeWidth=1;fillColor=none;align=left;verticalAlign=middle;spacingTop=-1;spacingLeft=3;spacingRight=3;rotatable=0;labelPosition=right;points=[];portConstraint=eastwest;strokeColor=inherit;" vertex="1" parent="Y2DvVZU8C8rbFuwOFh0H-10">
          <mxGeometry y="52" width="170" height="8" as="geometry" />
        </mxCell>
        <mxCell id="Y2DvVZU8C8rbFuwOFh0H-13" value="+ CrossSymbol(symbolType)" style="text;strokeColor=none;fillColor=none;align=left;verticalAlign=top;spacingLeft=4;spacingRight=4;overflow=hidden;rotatable=0;points=[[0,0.5],[1,0.5]];portConstraint=eastwest;whiteSpace=wrap;html=1;" vertex="1" parent="Y2DvVZU8C8rbFuwOFh0H-10">
          <mxGeometry y="60" width="170" height="26" as="geometry" />
        </mxCell>
        <mxCell id="Y2DvVZU8C8rbFuwOFh0H-14" value="RoundSymbol" style="swimlane;fontStyle=1;align=center;verticalAlign=top;childLayout=stackLayout;horizontal=1;startSize=26;horizontalStack=0;resizeParent=1;resizeParentMax=0;resizeLast=0;collapsible=1;marginBottom=0;whiteSpace=wrap;html=1;" vertex="1" parent="1">
          <mxGeometry x="940" y="516" width="170" height="86" as="geometry" />
        </mxCell>
        <mxCell id="Y2DvVZU8C8rbFuwOFh0H-15" value="+ symbolType&amp;nbsp;" style="text;strokeColor=none;fillColor=none;align=left;verticalAlign=top;spacingLeft=4;spacingRight=4;overflow=hidden;rotatable=0;points=[[0,0.5],[1,0.5]];portConstraint=eastwest;whiteSpace=wrap;html=1;" vertex="1" parent="Y2DvVZU8C8rbFuwOFh0H-14">
          <mxGeometry y="26" width="170" height="26" as="geometry" />
        </mxCell>
        <mxCell id="Y2DvVZU8C8rbFuwOFh0H-16" value="" style="line;strokeWidth=1;fillColor=none;align=left;verticalAlign=middle;spacingTop=-1;spacingLeft=3;spacingRight=3;rotatable=0;labelPosition=right;points=[];portConstraint=eastwest;strokeColor=inherit;" vertex="1" parent="Y2DvVZU8C8rbFuwOFh0H-14">
          <mxGeometry y="52" width="170" height="8" as="geometry" />
        </mxCell>
        <mxCell id="Y2DvVZU8C8rbFuwOFh0H-17" value="+ RoundSymbol(symbolType)" style="text;strokeColor=none;fillColor=none;align=left;verticalAlign=top;spacingLeft=4;spacingRight=4;overflow=hidden;rotatable=0;points=[[0,0.5],[1,0.5]];portConstraint=eastwest;whiteSpace=wrap;html=1;" vertex="1" parent="Y2DvVZU8C8rbFuwOFh0H-14">
          <mxGeometry y="60" width="170" height="26" as="geometry" />
        </mxCell>
        <mxCell id="Y2DvVZU8C8rbFuwOFh0H-51" value="TIC TAC TOE LLD" style="html=1;whiteSpace=wrap;" vertex="1" parent="1">
          <mxGeometry x="160" y="516" width="300" height="120" as="geometry" />
        </mxCell>
      </root>
    </mxGraphModel>
  </diagram>
</mxfile>
